<svg width="24" height="18" viewBox="0 0 24 18" fill="none" xmlns="http://www.w3.org/2000/svg">
<path d="M9.87605 1.98879C9.70165 1.50399 9.52565 1.01519 9.52245 1.00879C9.43845 0.820786 9.24405 0.702386 9.03925 0.723186C8.90965 0.733586 5.84325 0.997586 3.87845 2.57759C2.85125 3.52639 0.800049 9.07359 0.800049 13.8696C0.800049 13.9544 0.821649 14.0368 0.864049 14.1104C2.28085 16.5984 6.14325 17.2496 7.02325 17.2776C7.02885 17.2784 7.03365 17.2784 7.03845 17.2784C7.19365 17.2784 7.33925 17.204 7.43205 17.0784L8.38405 15.7888C6.81125 15.5496 6.52725 15.2376 6.46085 15.1888C6.10565 14.9272 5.84325 14.5608 6.16165 14.0984C6.40645 13.7392 6.92005 13.6208 7.31365 13.8232C7.71685 14.0112 8.79605 14.616 12 14.6C15.1816 14.5904 16.5784 13.924 16.5984 13.9096C17.1328 13.6688 17.5496 13.768 17.8096 14.1248C18.1192 14.6104 17.8984 14.9392 17.5448 15.2C17.4784 15.2488 17.3176 15.3856 15.628 15.7856L16.568 17.0776C16.66 17.204 16.8064 17.2776 16.9616 17.2776C16.9672 17.2776 16.972 17.2776 16.9769 17.2768C17.8576 17.2488 21.72 16.5976 23.136 14.1096C23.1784 14.036 23.2 13.9536 23.2 13.8688C23.2 9.07359 21.1488 3.52639 20.0961 2.55679C18.1568 0.998386 15.0904 0.734386 14.9608 0.723186C14.756 0.705586 14.5616 0.821586 14.4776 1.00879C14.4744 1.01519 14.3032 1.51199 14.1376 1.99119C14.1376 1.99119 12.8328 1.79999 12 1.79999C11.1672 1.79999 9.87605 1.98879 9.87605 1.98879ZM8.80005 12.2C7.91605 12.2 7.20005 11.1336 7.20005 9.81679C7.20005 8.49999 7.91605 7.43359 8.80005 7.43359C9.68725 7.30159 10.3808 8.49999 10.4 9.81679C10.4 11.1336 9.68405 12.2 8.80005 12.2ZM15.2 12.2C14.316 12.2 13.6 11.1264 13.6 9.80239C13.6 8.47839 14.316 7.40479 15.2 7.40479C16.084 7.40479 16.8 8.47839 16.8 9.80239C16.8 11.1264 16.084 12.2 15.2 12.2Z" fill="white"/>
</svg>
