<svg
    width="208"
    height="54"
    viewBox="0 0 208 54"
    fill="none"
    xmlns="http://www.w3.org/2000/svg"
>
    <g clip-path="url(#clip0_770_93)">
    <rect
        width="39.351"
        height="39.351"
        transform="translate(0 7.32446)"
        fill="white"
    />
    <path
        d="M0 7.32446L12.5208 19.8452"
        stroke="#2050AE"
        stroke-width="3.57737"
    />
    <path
        d="M26.8303 34.1547L39.3511 46.6755"
        stroke="#2050AE"
        stroke-width="3.57737"
    />
    <rect
        width="17.8868"
        height="17.8868"
        transform="translate(10.7322 18.0566)"
        fill="#2050AE"
    />
    </g>
    <path
    d="M63.7845 14.8869V40H57.6672V14.8869H63.7845ZM80.3807 19.8236C82.7179 19.8236 84.5781 20.5868 85.9614 22.1132C87.3685 23.6157 88.072 25.6905 88.072 28.3378V40H81.9905V29.1606C81.9905 27.825 81.6447 26.7876 80.9531 26.0483C80.2614 25.3089 79.3313 24.9393 78.1627 24.9393C76.9941 24.9393 76.064 25.3089 75.3724 26.0483C74.6807 26.7876 74.3349 27.825 74.3349 29.1606V40H68.2176V20.0383H74.3349V22.6855C74.955 21.8031 75.7897 21.1115 76.8391 20.6107C77.8884 20.086 79.069 19.8236 80.3807 19.8236ZM103.449 34.8128V40H100.336C98.1183 40 96.3892 39.4634 95.1491 38.3902C93.9089 37.2931 93.2888 35.5164 93.2888 33.0599V25.1182H90.8562V20.0383H93.2888V15.1731H99.4061V20.0383H103.413V25.1182H99.4061V33.1315C99.4061 33.7277 99.5492 34.157 99.8354 34.4193C100.122 34.6816 100.599 34.8128 101.266 34.8128H103.449ZM112.973 23.3652C113.689 22.2682 114.583 21.4096 115.656 20.7895C116.73 20.1456 117.922 19.8236 119.234 19.8236V26.2987H117.552C116.026 26.2987 114.881 26.6326 114.118 27.3003C113.355 27.9443 112.973 29.089 112.973 30.7346V40H106.856V20.0383H112.973V23.3652ZM125.234 17.9634C124.161 17.9634 123.279 17.6534 122.587 17.0333C121.919 16.3894 121.585 15.6024 121.585 14.6722C121.585 13.7183 121.919 12.9313 122.587 12.3112C123.279 11.6672 124.161 11.3453 125.234 11.3453C126.284 11.3453 127.142 11.6672 127.81 12.3112C128.501 12.9313 128.847 13.7183 128.847 14.6722C128.847 15.6024 128.501 16.3894 127.81 17.0333C127.142 17.6534 126.284 17.9634 125.234 17.9634ZM128.275 20.0383V40H122.158V20.0383H128.275ZM144.871 19.8236C147.208 19.8236 149.069 20.5868 150.452 22.1132C151.859 23.6157 152.562 25.6905 152.562 28.3378V40H146.481V29.1606C146.481 27.825 146.135 26.7876 145.443 26.0483C144.752 25.3089 143.822 24.9393 142.653 24.9393C141.485 24.9393 140.554 25.3089 139.863 26.0483C139.171 26.7876 138.825 27.825 138.825 29.1606V40H132.708V20.0383H138.825V22.6855C139.445 21.8031 140.28 21.1115 141.33 20.6107C142.379 20.086 143.559 19.8236 144.871 19.8236ZM164.934 40.2862C163.193 40.2862 161.643 39.9881 160.283 39.3918C158.924 38.7956 157.851 37.9847 157.064 36.9592C156.277 35.9099 155.836 34.7413 155.74 33.4534H161.786C161.857 34.145 162.179 34.7055 162.752 35.1348C163.324 35.5641 164.028 35.7787 164.862 35.7787C165.626 35.7787 166.21 35.6356 166.615 35.3494C167.045 35.0394 167.259 34.6459 167.259 34.1689C167.259 33.5965 166.961 33.1792 166.365 32.9168C165.769 32.6306 164.803 32.3206 163.467 31.9867C162.036 31.6528 160.844 31.307 159.89 30.9493C158.936 30.5677 158.113 29.9834 157.422 29.1963C156.73 28.3855 156.384 27.3003 156.384 25.9409C156.384 24.7962 156.694 23.7588 157.314 22.8286C157.958 21.8747 158.888 21.1234 160.105 20.5749C161.345 20.0264 162.811 19.7521 164.505 19.7521C167.009 19.7521 168.976 20.3722 170.407 21.6123C171.862 22.8525 172.697 24.4981 172.912 26.5491H167.259C167.164 25.8575 166.854 25.3089 166.329 24.9035C165.828 24.4981 165.161 24.2954 164.326 24.2954C163.61 24.2954 163.062 24.4385 162.68 24.7246C162.299 24.987 162.108 25.3566 162.108 25.8336C162.108 26.406 162.406 26.8353 163.002 27.1215C163.622 27.4077 164.576 27.6939 165.864 27.98C167.343 28.3616 168.547 28.7432 169.477 29.1248C170.407 29.4825 171.218 30.0788 171.91 30.9135C172.625 31.7244 172.995 32.8214 173.019 34.2047C173.019 35.3733 172.685 36.4226 172.017 37.3527C171.373 38.259 170.431 38.9745 169.191 39.4992C167.975 40.0238 166.556 40.2862 164.934 40.2862ZM179.838 17.9634C178.765 17.9634 177.882 17.6534 177.191 17.0333C176.523 16.3894 176.189 15.6024 176.189 14.6722C176.189 13.7183 176.523 12.9313 177.191 12.3112C177.882 11.6672 178.765 11.3453 179.838 11.3453C180.887 11.3453 181.746 11.6672 182.414 12.3112C183.105 12.9313 183.451 13.7183 183.451 14.6722C183.451 15.6024 183.105 16.3894 182.414 17.0333C181.746 17.6534 180.887 17.9634 179.838 17.9634ZM182.879 20.0383V40H176.761V20.0383H182.879ZM186.096 30.0191C186.096 27.9443 186.513 26.1317 187.348 24.5815C188.206 23.0314 189.387 21.8389 190.889 21.0042C192.416 20.1695 194.157 19.7521 196.112 19.7521C198.616 19.7521 200.703 20.4079 202.373 21.7197C204.066 23.0314 205.175 24.8797 205.699 27.2646H199.189C198.64 25.7382 197.579 24.9751 196.005 24.9751C194.884 24.9751 193.99 25.4163 193.322 26.2987C192.654 27.1573 192.32 28.3974 192.32 30.0191C192.32 31.6409 192.654 32.893 193.322 33.7754C193.99 34.6339 194.884 35.0632 196.005 35.0632C197.579 35.0632 198.64 34.3001 199.189 32.7737H205.699C205.175 35.1109 204.066 36.9473 202.373 38.2829C200.679 39.6184 198.592 40.2862 196.112 40.2862C194.157 40.2862 192.416 39.8688 190.889 39.0341C189.387 38.1994 188.206 37.0069 187.348 35.4567C186.513 33.9066 186.096 32.094 186.096 30.0191Z"
    fill="white"
    />
    <defs>
    <clipPath id="clip0_770_93">
        <rect
        width="39.351"
        height="39.351"
        fill="white"
        transform="translate(0 7.32446)"
        />
    </clipPath>
    </defs>
</svg>